<svg xmlns="http://www.w3.org/2000/svg" width="24" height="24" viewBox="0 0 24 24"><g fill="none" fill-rule="evenodd"><path d="m12.593 23.258l-.011.002l-.071.035l-.02.004l-.014-.004l-.071-.035q-.016-.005-.024.005l-.004.01l-.017.428l.005.02l.01.013l.104.074l.015.004l.012-.004l.104-.074l.012-.016l.004-.017l-.017-.427q-.004-.016-.017-.018m.265-.113l-.013.002l-.185.093l-.01.01l-.003.011l.018.43l.005.012l.008.007l.201.093q.019.005.029-.008l.004-.014l-.034-.614q-.005-.018-.02-.022m-.715.002a.02.02 0 0 0-.027.006l-.006.014l-.034.614q.001.018.017.024l.015-.002l.201-.093l.01-.008l.004-.011l.017-.43l-.003-.012l-.01-.01z"/><path fill="#ffffff" d="M4.569 5.865a1.332 1.332 0 0 1 1.846-1.064l.495.215l.662.3l.814.388l.459.227l.748.38l.535.282l.564.304l.588.326l.613.349l.633.37l.599.361l.564.349l.778.496l.694.458l.607.414l.668.472l.39.285l.206.154c.71.535.71 1.595.001 2.13l-.562.415l-.625.443l-.369.254l-.623.418l-.704.457l-.514.324l-.547.338l-.582.349l-.615.36l-.313.179l-.9.503l-.566.306l-.538.282l-.506.26l-.475.237l-.845.408l-.537.248l-.8.351a1.332 1.332 0 0 1-1.843-1.065l-.08-.698l-.071-.767l-.053-.689l-.05-.78l-.028-.569l-.024-.606l-.019-.64l-.015-1.025v-.715l.015-1.025l.03-.948l.026-.587l.03-.55l.052-.75l.054-.656l.07-.723zM19 5a1 1 0 0 1 .993.883L20 6v12a1 1 0 0 1-1.993.117L18 18V6a1 1 0 0 1 1-1M6.456 7.004l-.06.681l-.04.525l-.037.579l-.033.63l-.027.679l-.02.726l-.01.77l-.001.402l.005.792l.007.38l.02.727l.026.68l.033.63l.057.848l.06.724l.02.212l.616-.287l.472-.228l.517-.257l.562-.287l.602-.317l.64-.347l.676-.379l.7-.404l.665-.396l.621-.38l.576-.363l.529-.343l.481-.32l.631-.432l.359-.252l-.362-.255l-.635-.435l-.236-.158l-.507-.333l-.845-.537l-.304-.188l-.64-.387l-.681-.4l-.687-.39l-.332-.184l-.638-.346l-.602-.317l-.828-.42l-.73-.353l-.426-.2z"/></g></svg>
